<svg width="22" height="27" viewBox="0 0 22 27" fill="none" xmlns="http://www.w3.org/2000/svg">
<path d="M17.875 0H1.375C1.01033 0 0.660591 0.142232 0.402728 0.395406C0.144866 0.64858 0 0.991958 0 1.35V22.95C0 23.308 0.144866 23.6514 0.402728 23.9046C0.660591 24.1578 1.01033 24.3 1.375 24.3H2.75V25.65C2.75 26.008 2.89487 26.3514 3.15273 26.6046C3.41059 26.8578 3.76033 27 4.125 27C4.48967 27 4.83941 26.8578 5.09727 26.6046C5.35513 26.3514 5.5 26.008 5.5 25.65V24.3H17.875C18.969 24.3 20.0182 23.8733 20.7918 23.1138C21.5654 22.3543 22 21.3241 22 20.25V4.05C22 2.97587 21.5654 1.94574 20.7918 1.18622C20.0182 0.426695 18.969 0 17.875 0ZM13.75 21.6H2.75V2.7H13.75V21.6ZM19.25 20.25C19.25 20.608 19.1051 20.9514 18.8473 21.2046C18.5894 21.4578 18.2397 21.6 17.875 21.6H16.5V2.7H17.875C18.2397 2.7 18.5894 2.84223 18.8473 3.09541C19.1051 3.34858 19.25 3.69196 19.25 4.05V20.25Z" fill="white"/>
</svg>
