<svg width="33" height="29" viewBox="0 0 33 29" fill="none" xmlns="http://www.w3.org/2000/svg">
<path d="M31.6104 0.272436C30.4293 0.0954044 29.2332 0.00427958 28.0347 6.23756e-06C23.9454 -0.00291089 19.9414 1.01742 16.5 2.93938C13.0497 1.04266 9.04636 0.0473672 4.9653 0.0716982C3.76676 0.0759716 2.57071 0.167096 1.38955 0.344128C1.00265 0.402168 0.652285 0.578502 0.401542 0.841374C0.150798 1.10425 0.016156 1.43638 0.0218636 1.77797V18.9841C0.0183345 19.1947 0.0682103 19.4035 0.167942 19.5955C0.267674 19.7875 0.414811 19.958 0.598884 20.0949C0.782956 20.2318 0.999441 20.3317 1.23293 20.3876C1.46643 20.4434 1.71119 20.4538 1.94981 20.4179C4.31115 20.0622 6.73044 20.1212 9.06517 20.5915C11.3999 21.0618 13.6029 21.934 15.5443 23.1565L15.742 23.2569H15.9233C16.106 23.3232 16.302 23.3573 16.5 23.3573C16.698 23.3573 16.894 23.3232 17.0767 23.2569H17.258L17.4557 23.1565C19.3836 21.9067 21.5802 21.0063 23.9154 20.5087C26.2506 20.0112 28.6768 19.9267 31.0502 20.2602C31.2888 20.296 31.5336 20.2857 31.7671 20.2298C32.0006 20.174 32.217 20.0741 32.4011 19.9372C32.5852 19.8003 32.7323 19.6298 32.8321 19.4378C32.9318 19.2458 32.9817 19.037 32.9781 18.8263V1.62025C32.961 1.29355 32.816 0.981773 32.5672 0.736625C32.3185 0.491477 31.9809 0.327692 31.6104 0.272436ZM14.8522 19.3282C11.8035 17.9326 8.41009 17.2043 4.9653 17.2061C4.42153 17.2061 3.87775 17.2061 3.31749 17.2061V2.86769C3.86631 2.84017 4.41649 2.84017 4.9653 2.86769C8.48073 2.86431 11.9194 3.76196 14.8522 5.4486V19.3282ZM29.6825 17.2635C29.1222 17.2635 28.5785 17.2635 28.0347 17.2635C24.5899 17.2616 21.1965 17.99 18.1478 19.3855V5.4486C21.0806 3.76196 24.5193 2.86431 28.0347 2.86769C28.5835 2.84017 29.1337 2.84017 29.6825 2.86769V17.2635ZM31.6104 23.2139C30.4293 23.0369 29.2332 22.9457 28.0347 22.9415C23.9454 22.9386 19.9414 23.9589 16.5 25.8808C13.0586 23.9589 9.05458 22.9386 4.9653 22.9415C3.76676 22.9457 2.57071 23.0369 1.38955 23.2139C1.17505 23.2435 0.969394 23.3097 0.78441 23.4088C0.599426 23.5078 0.438762 23.6376 0.311659 23.7909C0.184556 23.9441 0.0935194 24.1177 0.0437857 24.3017C-0.00594806 24.4856 -0.0133982 24.6763 0.0218636 24.8628C0.105603 25.2352 0.35553 25.5635 0.716895 25.7758C1.07826 25.9881 1.5216 26.0671 1.94981 25.9956C4.31115 25.6398 6.73044 25.6988 9.06517 26.1692C11.3999 26.6395 13.6029 27.5116 15.5443 28.7342C15.8233 28.9071 16.1574 29 16.5 29C16.8426 29 17.1767 28.9071 17.4557 28.7342C19.3971 27.5116 21.6001 26.6395 23.9348 26.1692C26.2696 25.6988 28.6888 25.6398 31.0502 25.9956C31.4784 26.0671 31.9217 25.9881 32.2831 25.7758C32.6445 25.5635 32.8944 25.2352 32.9781 24.8628C33.0134 24.6763 33.0059 24.4856 32.9562 24.3017C32.9065 24.1177 32.8154 23.9441 32.6883 23.7909C32.5612 23.6376 32.4006 23.5078 32.2156 23.4088C32.0306 23.3097 31.8249 23.2435 31.6104 23.2139Z" fill="#F2F2F2"/>
</svg>
